<svg width="48" height="47" viewBox="0 0 48 47" fill="none" xmlns="http://www.w3.org/2000/svg">
<g clip-path="url(#clip0_2037_32)">
<path d="M29.58 6.95025C29.1686 10.3692 26.7494 14.9359 22.915 15.1978C19.6763 15.4192 16.0044 14.8842 12.8182 15.2042C10.315 15.4556 8.66376 17.3752 8.48109 19.8388C8.15455 24.2487 8.73488 29.0538 8.48109 33.5049C8.65972 36.1705 10.2997 37.9067 12.971 38.1484C17.7252 37.9059 22.8059 38.4749 27.5221 38.1524C29.9679 37.9851 31.8439 36.493 32.0751 33.9761C32.3539 30.9338 31.8205 27.4866 32.0823 24.4459C32.248 22.523 35.5991 19.4476 37.1518 18.3613C37.6739 17.9968 38.2348 17.6815 38.7925 17.3768V34.8749C38.1952 41.9108 32.9027 46.5559 25.9056 46.7208C23.2319 46.7838 20.4911 46.6456 17.8181 46.6294C12.676 46.5971 8.55383 47.2583 4.40018 43.5669C1.53327 41.0177 0.236819 37.8081 0.0751669 33.9907C-0.141447 28.8679 0.181049 23.6716 0.160843 18.5496C0.800178 12.2282 5.69986 7.34388 12.0787 6.94702L29.5808 6.95106L29.58 6.95025Z" fill="#161515"/>
<path d="M34.4109 0.0202065L45.3006 0C46.408 0.143062 47.0295 0.886663 47.1233 1.9762C47.4118 5.33049 46.8986 9.09133 47.1233 12.4893C46.8937 15.243 43.4441 14.3628 41.4994 14.463C34.5718 14.8203 28.6391 20.0522 28.2075 27.1164C28.1251 28.4605 28.3837 30.191 28.1873 31.4608C28.058 32.2941 27.232 33.0013 26.3914 33.0595C23.3054 32.855 19.8946 33.3198 16.8474 33.0595C15.9527 32.9827 15.1719 32.3887 15.0312 31.481C15.1792 28.1881 14.8502 24.7433 14.9819 21.4715C15.0846 18.9133 18.2441 19.6666 19.9212 19.5575C26.747 19.1146 32.2852 12.7641 32.7322 6.09995C32.8251 4.70812 32.522 2.75536 32.7855 1.46538C32.9391 0.71127 33.6778 0.150337 34.4109 0.0193983V0.0202065Z" fill="url(#paint0_linear_2037_32)"/>
</g>
<defs>
<linearGradient id="paint0_linear_2037_32" x1="31.082" y1="0" x2="31.082" y2="33.141" gradientUnits="userSpaceOnUse">
<stop stop-color="#FF6103"/>
<stop offset="1" stop-color="#FD5302"/>
</linearGradient>
<clipPath id="clip0_2037_32">
<rect width="47.2138" height="46.7369" fill="white"/>
</clipPath>
</defs>
</svg>
