<svg width="200" height="53" viewBox="0 0 200 53" fill="none" xmlns="http://www.w3.org/2000/svg">
<path d="M105.532 42.2804C102.296 42.2804 99.9181 41.4227 98.3976 39.7073C96.8772 37.9529 96.117 35.2434 96.117 31.5787V16.9004H91.6141L91.731 11.0525H94.7135C95.8441 11.0525 96.6823 10.8771 97.2281 10.5262C97.7739 10.1754 98.1053 9.55158 98.2222 8.6549L98.924 4.21049H103.193V10.9941H111.263V17.1344H103.193V31.2863C103.193 32.7288 103.524 33.7814 104.187 34.4442C104.889 35.1069 105.922 35.4383 107.286 35.4383C108.027 35.4383 108.748 35.3603 109.45 35.2044C110.191 35.0095 110.873 34.6976 111.497 34.2687V41.2862C110.288 41.6761 109.177 41.9295 108.164 42.0464C107.189 42.2024 106.312 42.2804 105.532 42.2804Z" fill="#161515"/>
<path d="M127.267 42.3388C124.811 42.3388 122.608 41.988 120.659 41.2862C118.749 40.5845 117.131 39.5708 115.805 38.2453C114.48 36.8808 113.466 35.2434 112.764 33.3331C112.063 31.4227 111.712 29.259 111.712 26.8419C111.712 24.4248 112.043 22.2025 112.706 20.1753C113.408 18.148 114.402 16.3936 115.688 14.9122C116.975 13.4307 118.534 12.2806 120.367 11.4619C122.238 10.6432 124.363 10.2338 126.741 10.2338C128.963 10.2338 130.951 10.6042 132.706 11.3449C134.46 12.0857 135.942 13.1968 137.15 14.6782C138.359 16.1207 139.255 17.9336 139.84 20.1168C140.425 22.261 140.62 24.7561 140.425 27.6021L116.507 27.7776V23.5086L136.156 23.3331L133.583 25.7308C133.817 23.5086 133.641 21.6957 133.057 20.2922C132.472 18.8497 131.634 17.7971 130.542 17.1344C129.45 16.4326 128.203 16.0817 126.799 16.0817C125.201 16.0817 123.797 16.5106 122.589 17.3683C121.38 18.187 120.445 19.3956 119.782 20.994C119.158 22.5534 118.846 24.4637 118.846 26.7249C118.846 30.1167 119.587 32.6508 121.068 34.3272C122.589 36.0036 124.655 36.8418 127.267 36.8418C128.437 36.8418 129.411 36.7054 130.191 36.4325C131.01 36.1206 131.692 35.7307 132.238 35.2629C132.784 34.7561 133.212 34.1908 133.524 33.567C133.875 32.9432 134.148 32.2804 134.343 31.5787L140.776 33.0407C140.464 34.4832 139.957 35.7697 139.255 36.9003C138.554 38.0309 137.637 39.0055 136.507 39.8242C135.415 40.6429 134.109 41.2667 132.589 41.6956C131.068 42.1244 129.294 42.3388 127.267 42.3388Z" fill="#161515"/>
<path d="M156.809 42.3388C154.158 42.3388 151.858 41.949 149.909 41.1693C147.998 40.3895 146.4 39.2979 145.113 37.8944C143.866 36.4519 142.93 34.7755 142.306 32.8652C141.682 30.9549 141.371 28.8887 141.371 26.6664C141.371 24.2883 141.682 22.1051 142.306 20.1168C142.969 18.1285 143.944 16.3936 145.23 14.9122C146.517 13.4307 148.096 12.2806 149.967 11.4619C151.877 10.6432 154.061 10.2338 156.517 10.2338C158.973 10.2338 161.098 10.6432 162.891 11.4619C164.723 12.2806 166.205 13.4307 167.335 14.9122C168.466 16.3546 169.226 18.0505 169.616 19.9998L162.715 22.1636C162.637 20.994 162.326 19.9609 161.78 19.0642C161.234 18.1285 160.493 17.4073 159.558 16.9004C158.622 16.3936 157.511 16.1402 156.224 16.1402C154.977 16.1402 153.885 16.3936 152.949 16.9004C152.053 17.3683 151.293 18.0505 150.669 18.9472C150.084 19.8439 149.616 20.9355 149.265 22.222C148.953 23.4696 148.797 24.8731 148.797 26.4325C148.797 28.5768 149.09 30.4091 149.675 31.9296C150.259 33.45 151.156 34.6391 152.365 35.4968C153.573 36.3155 155.074 36.7248 156.868 36.7248C158.466 36.7248 159.753 36.4325 160.727 35.8477C161.741 35.2239 162.501 34.4247 163.008 33.45C163.554 32.4754 163.885 31.4033 164.002 30.2337L170.552 31.6957C170.318 33.2941 169.869 34.7366 169.207 36.0231C168.544 37.3096 167.628 38.4402 166.458 39.4149C165.328 40.3506 163.963 41.0718 162.365 41.5786C160.766 42.0854 158.914 42.3388 156.809 42.3388Z" fill="#161515"/>
<path d="M171.696 41.5786V0H178.948V23.3331C180.273 22.5144 181.54 21.6178 182.749 20.6431C183.957 19.6295 185.068 18.5768 186.082 17.4852C187.096 16.3936 187.992 15.302 188.772 14.2104C189.552 13.0798 190.195 12.0077 190.702 10.9941H199.181C198.557 12.5145 197.739 14.0155 196.725 15.497C195.712 16.9784 194.522 18.3429 193.158 19.5905C191.832 20.838 190.331 21.9296 188.655 22.8653C186.979 23.762 185.185 24.3858 183.275 24.7366V25.5553C185.692 25.2045 187.719 25.3214 189.357 25.9062C190.994 26.491 192.378 27.3682 193.509 28.5378C194.639 29.7074 195.575 31.0719 196.316 32.6313C197.096 34.1518 197.817 35.7112 198.48 37.3096L200 41.5786H191.871L190.936 38.7716C190.195 36.8223 189.415 35.1069 188.597 33.6255C187.817 32.105 186.823 30.9354 185.614 30.1167C184.445 29.259 182.924 28.8302 181.053 28.8302H178.948V41.5786H171.696Z" fill="#161515"/>
<path d="M73.7825 52.1461C70.4686 52.1461 67.7396 51.8927 65.5954 51.3859C63.4901 50.8791 61.9307 50.1189 60.9171 49.1052C59.9034 48.0916 59.3966 46.844 59.3966 45.3626C59.3966 43.5692 60.0984 42.1072 61.5019 40.9766C62.9443 39.8071 65.0691 39.0858 67.8761 38.8129V37.6433C65.7708 37.6823 64.1724 37.4679 63.0808 37.0001C61.9892 36.4932 61.4434 35.694 61.4434 34.6024C61.4434 33.5498 61.9697 32.6141 63.0223 31.7954C64.1139 30.9767 65.9073 30.2945 68.4024 29.7487V28.5791C66.0242 28.4621 64.1724 27.7214 62.8469 26.3569C61.5213 24.9534 60.8586 23.1405 60.8586 20.9183C60.8586 18.93 61.4044 17.1757 62.496 15.6552C63.5876 14.1347 65.186 12.9457 67.2913 12.088C69.4355 11.1913 72.0281 10.743 75.069 10.743H90.2151V16.5909L80.6245 15.1874V16.4739C83.0416 16.8638 84.8155 17.546 85.9461 18.5207C87.1157 19.4953 87.7005 20.8208 87.7005 22.4972C87.7005 24.0957 87.1937 25.5187 86.18 26.7662C85.1664 27.9748 83.6849 28.9299 81.7356 29.6317C79.8253 30.2945 77.5056 30.6258 74.7766 30.6258C74.2698 30.6258 73.724 30.6063 73.1392 30.5674C72.5544 30.5284 71.6382 30.4309 70.3907 30.275C69.572 30.8598 68.9092 31.3861 68.4024 31.8539C67.8956 32.2827 67.6422 32.6921 67.6422 33.082C67.6422 33.3938 67.8371 33.6668 68.2269 33.9007C68.6168 34.0956 69.1236 34.232 69.7474 34.31C70.3712 34.388 70.9755 34.427 71.5603 34.427H79.6888C80.4686 34.427 81.4627 34.4855 82.6713 34.6024C83.9188 34.7194 85.1469 35.0313 86.3555 35.5381C87.603 36.0449 88.6361 36.8441 89.4548 37.9357C90.3125 39.0273 90.7414 40.5673 90.7414 42.5556C90.7414 44.7778 90.0981 46.5906 88.8116 47.9941C87.564 49.4366 85.6732 50.4892 83.1391 51.152C80.644 51.8147 77.5251 52.1461 73.7825 52.1461ZM74.4257 46.1813C76.8429 46.1813 78.7727 46.0448 80.2152 45.7719C81.6576 45.499 82.6908 45.0507 83.3145 44.4269C83.9383 43.8421 84.2502 43.0819 84.2502 42.1462C84.2502 41.2885 84.0553 40.6258 83.6654 40.1579C83.2756 39.6511 82.7687 39.3002 82.145 39.1053C81.5602 38.9104 80.9559 38.7934 80.3321 38.7544C79.7083 38.7154 79.182 38.6959 78.7532 38.6959H71.5603C69.6889 38.9688 68.3634 39.4952 67.5837 40.2749C66.8429 41.0546 66.4726 41.9123 66.4726 42.848C66.4726 43.7836 66.7845 44.4854 67.4082 44.9532C68.032 45.46 68.9287 45.7914 70.0983 45.9474C71.3068 46.1033 72.7493 46.1813 74.4257 46.1813ZM74.6012 26.5908C76.6284 26.5908 78.1684 26.123 79.221 25.1873C80.2736 24.2126 80.7999 22.9456 80.7999 21.3861C80.7999 19.7097 80.2541 18.3452 79.1625 17.2926C78.1099 16.201 76.57 15.6552 74.5427 15.6552C72.5154 15.6552 70.9365 16.1815 69.8059 17.2341C68.7143 18.2868 68.1685 19.6318 68.1685 21.2692C68.1685 22.3218 68.4024 23.2575 68.8702 24.0762C69.377 24.8559 70.0983 25.4797 71.0339 25.9475C72.0086 26.3764 73.1977 26.5908 74.6012 26.5908Z" fill="#161515"/>
<g clip-path="url(#clip0_2037_29)">
<path d="M29.58 12.6061C29.1686 16.025 26.7494 20.5917 22.915 20.8536C19.6763 21.075 16.0044 20.54 12.8182 20.86C10.315 21.1114 8.66376 23.031 8.48109 25.4946C8.15455 29.9045 8.73488 34.7096 8.48109 39.1607C8.65972 41.8264 10.2997 43.5625 12.971 43.8042C17.7252 43.5617 22.8059 44.1307 27.5221 43.8082C29.9679 43.6409 31.8439 42.1489 32.0751 39.6319C32.3539 36.5896 31.8205 33.1424 32.0823 30.1017C32.248 28.1789 35.5991 25.1034 37.1518 24.0171C37.6739 23.6526 38.2348 23.3374 38.7925 23.0327V40.5307C38.1952 47.5666 32.9027 52.2117 25.9056 52.3766C23.2319 52.4396 20.4911 52.3014 17.8181 52.2853C12.676 52.2529 8.55383 52.9141 4.40018 49.2228C1.53327 46.6735 0.236819 43.4639 0.0751669 39.6465C-0.141447 34.5237 0.181049 29.3274 0.160843 24.2054C0.800178 17.884 5.69986 12.9997 12.0787 12.6028L29.5808 12.6069L29.58 12.6061Z" fill="#161515"/>
<path d="M34.4109 5.67603L45.3006 5.65582C46.408 5.79889 47.0295 6.54249 47.1233 7.63202C47.4118 10.9863 46.8986 14.7471 47.1233 18.1451C46.8937 20.8988 43.4441 20.0186 41.4994 20.1189C34.5718 20.4761 28.6391 25.708 28.2075 32.7722C28.1251 34.1163 28.3837 35.8468 28.1873 37.1166C28.058 37.9499 27.232 38.6571 26.3914 38.7153C23.3054 38.5108 19.8946 38.9756 16.8474 38.7153C15.9527 38.6386 15.1719 38.0445 15.0312 37.1368C15.1792 33.8439 14.8502 30.3991 14.9819 27.1273C15.0846 24.5691 18.2441 25.3224 19.9212 25.2133C26.747 24.7704 32.2852 18.4199 32.7322 11.7558C32.8251 10.3639 32.522 8.41119 32.7855 7.1212C32.9391 6.36709 33.6778 5.80616 34.4109 5.67522V5.67603Z" fill="url(#paint0_linear_2037_29)"/>
</g>
<defs>
<linearGradient id="paint0_linear_2037_29" x1="31.082" y1="5.65582" x2="31.082" y2="38.7968" gradientUnits="userSpaceOnUse">
<stop stop-color="#FF6103"/>
<stop offset="1" stop-color="#FD5302"/>
</linearGradient>
<clipPath id="clip0_2037_29">
<rect width="47.2138" height="46.7369" fill="white" transform="translate(0 5.65582)"/>
</clipPath>
</defs>
</svg>
