<svg width="512" height="512" viewBox="0 0 512 512" fill="none" xmlns="http://www.w3.org/2000/svg">
<rect width="512" height="512" rx="24" fill="url(#paint0_linear_2035_3)"/>
<path d="M188.756 381.997C179.725 381.997 173.088 379.603 168.845 374.816C164.602 369.92 162.48 362.358 162.48 352.131V311.166H149.913L150.24 294.846H158.563C161.718 294.846 164.058 294.356 165.581 293.377C167.104 292.398 168.029 290.657 168.355 288.154L170.314 275.751H182.228V294.682H204.75V311.819H182.228V351.314C182.228 355.34 183.153 358.278 185.002 360.128C186.961 361.977 189.844 362.902 193.652 362.902C195.719 362.902 197.732 362.684 199.691 362.249C201.758 361.705 203.662 360.835 205.403 359.638V379.222C202.03 380.311 198.929 381.018 196.1 381.344C193.38 381.779 190.932 381.997 188.756 381.997Z" fill="white"/>
<path d="M249.414 382.16C242.56 382.16 236.413 381.181 230.972 379.222C225.641 377.264 221.126 374.435 217.426 370.736C213.727 366.928 210.898 362.358 208.94 357.027C206.981 351.695 206.002 345.657 206.002 338.911C206.002 332.165 206.927 325.963 208.777 320.306C210.735 314.648 213.509 309.752 217.1 305.617C220.69 301.483 225.043 298.273 230.156 295.988C235.379 293.703 241.309 292.561 247.946 292.561C254.147 292.561 259.696 293.594 264.593 295.662C269.489 297.729 273.623 300.83 276.996 304.964C280.369 308.99 282.871 314.049 284.503 320.142C286.136 326.127 286.68 333.09 286.136 341.033L219.385 341.522V329.608L274.222 329.119L267.041 335.81C267.693 329.608 267.204 324.549 265.572 320.632C263.94 316.606 261.6 313.669 258.554 311.819C255.507 309.861 252.026 308.881 248.109 308.881C243.648 308.881 239.731 310.078 236.358 312.472C232.985 314.757 230.374 318.13 228.524 322.59C226.783 326.943 225.913 332.274 225.913 338.585C225.913 348.05 227.98 355.123 232.115 359.801C236.358 364.48 242.125 366.819 249.414 366.819C252.679 366.819 255.399 366.438 257.575 365.676C259.86 364.806 261.764 363.718 263.287 362.412C264.81 360.998 266.007 359.42 266.877 357.679C267.857 355.939 268.618 354.089 269.162 352.131L287.115 356.211C286.244 360.236 284.83 363.827 282.871 366.982C280.913 370.137 278.356 372.857 275.201 375.142C272.154 377.427 268.509 379.168 264.266 380.365C260.023 381.562 255.072 382.16 249.414 382.16Z" fill="white"/>
<path d="M331.861 382.16C324.462 382.16 318.043 381.072 312.603 378.896C307.271 376.72 302.81 373.674 299.22 369.757C295.738 365.731 293.127 361.052 291.386 355.721C289.645 350.39 288.775 344.623 288.775 338.421C288.775 331.784 289.645 325.691 291.386 320.142C293.236 314.593 295.956 309.752 299.546 305.617C303.137 301.483 307.543 298.273 312.766 295.988C318.097 293.703 324.19 292.561 331.045 292.561C337.899 292.561 343.829 293.703 348.834 295.988C353.948 298.273 358.082 301.483 361.238 305.617C364.393 309.643 366.515 314.376 367.603 319.816L348.345 325.855C348.127 322.59 347.257 319.707 345.733 317.205C344.21 314.593 342.143 312.581 339.531 311.166C336.92 309.752 333.819 309.044 330.229 309.044C326.747 309.044 323.701 309.752 321.089 311.166C318.587 312.472 316.465 314.376 314.724 316.878C313.092 319.381 311.787 322.427 310.807 326.018C309.937 329.499 309.502 333.416 309.502 337.769C309.502 343.753 310.318 348.866 311.95 353.11C313.582 357.353 316.084 360.672 319.457 363.065C322.83 365.35 327.019 366.493 332.024 366.493C336.485 366.493 340.076 365.676 342.796 364.044C345.624 362.304 347.746 360.073 349.161 357.353C350.684 354.633 351.609 351.641 351.935 348.377L370.214 352.457C369.561 356.918 368.31 360.944 366.46 364.534C364.611 368.125 362.054 371.28 358.79 374C355.634 376.611 351.826 378.624 347.365 380.038C342.904 381.453 337.736 382.16 331.861 382.16Z" fill="white"/>
<path d="M373.408 380.038V264H393.645V329.119C397.345 326.834 400.881 324.331 404.254 321.611C407.626 318.782 410.727 315.845 413.556 312.798C416.385 309.752 418.888 306.705 421.064 303.659C423.24 300.503 425.035 297.511 426.449 294.682H450.114C448.373 298.926 446.088 303.115 443.26 307.249C440.431 311.384 437.112 315.192 433.304 318.674C429.605 322.155 425.416 325.202 420.737 327.813C416.059 330.315 411.054 332.056 405.722 333.036V335.32C412.468 334.341 418.126 334.668 422.696 336.3C427.265 337.932 431.128 340.38 434.283 343.644C437.439 346.908 440.05 350.716 442.117 355.068C444.293 359.312 446.306 363.664 448.156 368.125L452.399 380.038H429.714L427.102 372.205C425.035 366.765 422.859 361.977 420.574 357.843C418.398 353.599 415.624 350.335 412.251 348.05C408.987 345.657 404.743 344.46 399.521 344.46H393.645V380.038H373.408Z" fill="white"/>
<path d="M100.148 409.531C90.9001 409.531 83.2839 408.823 77.2997 407.409C71.4243 405.994 67.0722 403.873 64.2433 401.044C61.4144 398.215 60 394.733 60 390.599C60 385.594 61.9585 381.514 65.8754 378.358C69.9011 375.094 75.8308 373.082 83.6647 372.32V369.056C77.7893 369.165 73.3284 368.566 70.2819 367.261C67.2354 365.846 65.7122 363.616 65.7122 360.569C65.7122 357.631 67.181 355.02 70.1187 352.735C73.1652 350.45 78.1701 348.546 85.1335 347.023V343.759C78.4965 343.433 73.3284 341.365 69.6291 337.557C65.9298 333.64 64.0801 328.581 64.0801 322.379C64.0801 316.83 65.6034 311.934 68.6498 307.691C71.6963 303.448 76.1573 300.129 82.0326 297.735C88.0168 295.233 95.2522 293.982 103.739 293.982H146.009V310.302L119.243 306.385V309.976C125.989 311.064 130.94 312.968 134.095 315.688C137.359 318.408 138.991 322.107 138.991 326.786C138.991 331.247 137.577 335.218 134.748 338.7C131.919 342.073 127.784 344.738 122.344 346.697C117.013 348.546 110.539 349.471 102.923 349.471C101.508 349.471 99.9851 349.417 98.3531 349.308C96.721 349.199 94.1642 348.927 90.6825 348.492C88.3976 350.124 86.548 351.593 85.1335 352.899C83.7191 354.095 83.0119 355.238 83.0119 356.326C83.0119 357.196 83.5559 357.958 84.6439 358.611C85.7319 359.155 87.1464 359.536 88.8872 359.753C90.6281 359.971 92.3145 360.08 93.9466 360.08H116.632C118.808 360.08 121.583 360.243 124.955 360.569C128.437 360.896 131.864 361.766 135.237 363.18C138.719 364.595 141.602 366.825 143.887 369.872C146.281 372.918 147.478 377.216 147.478 382.765C147.478 388.967 145.682 394.026 142.092 397.943C138.61 401.969 133.333 404.906 126.261 406.756C119.298 408.606 110.593 409.531 100.148 409.531ZM101.944 392.884C108.689 392.884 114.075 392.503 118.101 391.741C122.127 390.98 125.01 389.728 126.751 387.988C128.492 386.356 129.362 384.234 129.362 381.623C129.362 379.229 128.818 377.379 127.73 376.074C126.642 374.659 125.227 373.68 123.487 373.136C121.855 372.592 120.168 372.266 118.427 372.157C116.686 372.048 115.218 371.993 114.021 371.993H93.9466C88.724 372.755 85.0247 374.224 82.8486 376.4C80.7814 378.576 79.7478 380.97 79.7478 383.581C79.7478 386.192 80.6182 388.151 82.359 389.456C84.0999 390.871 86.6024 391.796 89.8664 392.231C93.2393 392.666 97.2651 392.884 101.944 392.884ZM102.433 338.21C108.091 338.21 112.389 336.905 115.326 334.293C118.264 331.573 119.733 328.037 119.733 323.685C119.733 319.006 118.21 315.198 115.163 312.261C112.225 309.214 107.928 307.691 102.27 307.691C96.6122 307.691 92.2057 309.16 89.0504 312.097C86.0039 315.035 84.4807 318.789 84.4807 323.359C84.4807 326.296 85.1335 328.907 86.4392 331.192C87.8536 333.368 89.8665 335.109 92.4777 336.415C95.1978 337.612 98.5163 338.21 102.433 338.21Z" fill="white"/>
<g clip-path="url(#clip0_2035_3)">
<path d="M272.552 121.397C271.404 130.939 264.653 143.683 253.952 144.414C244.913 145.032 234.665 143.539 225.773 144.432C218.787 145.134 214.179 150.491 213.669 157.367C212.758 169.674 214.377 183.084 213.669 195.506C214.167 202.946 218.744 207.791 226.199 208.465C239.468 207.789 253.647 209.377 266.809 208.477C273.635 208.01 278.87 203.846 279.516 196.821C280.294 188.331 278.805 178.71 279.536 170.224C279.998 164.858 289.35 156.275 293.684 153.243C295.141 152.226 296.706 151.346 298.263 150.496V199.33C296.596 218.966 281.825 231.929 262.298 232.389C254.836 232.565 247.187 232.18 239.727 232.135C225.376 232.044 213.872 233.889 202.28 223.588C194.279 216.473 190.661 207.516 190.21 196.862C189.605 182.565 190.505 168.063 190.449 153.769C192.233 136.127 205.907 122.495 223.709 121.388L272.554 121.399L272.552 121.397Z" fill="white"/>
<path d="M286.034 102.057L316.426 102C319.516 102.399 321.251 104.475 321.512 107.515C322.318 116.877 320.885 127.372 321.512 136.855C320.872 144.541 311.244 142.084 305.817 142.364C286.483 143.361 269.926 157.962 268.722 177.677C268.492 181.428 269.214 186.258 268.665 189.802C268.305 192.127 265.999 194.101 263.653 194.263C255.041 193.693 245.522 194.99 237.018 194.263C234.521 194.049 232.342 192.391 231.949 189.858C232.362 180.668 231.444 171.054 231.812 161.923C232.098 154.784 240.916 156.886 245.596 156.582C264.646 155.346 280.102 137.622 281.349 119.024C281.609 115.14 280.763 109.69 281.498 106.09C281.927 103.985 283.989 102.42 286.034 102.054V102.057Z" fill="white"/>
</g>
<defs>
<linearGradient id="paint0_linear_2035_3" x1="256" y1="0" x2="256" y2="512" gradientUnits="userSpaceOnUse">
<stop stop-color="#FF6103"/>
<stop offset="1" stop-color="#FD5302"/>
</linearGradient>
<clipPath id="clip0_2035_3">
<rect width="131.765" height="130.434" fill="white" transform="translate(190 102)"/>
</clipPath>
</defs>
</svg>
